# xmcd CD database file
#
# Track frame offsets:
#	150
#	13483
#	23868
#	37153
#	51123
#	62480
#	77654
#	88522
#	101367
#	114951
#	127494
#	140711
#	153797
#	168330
#	180902
#	193155
#	206153
#	220266
#	232781
#	245934
#
# Disc length: 3461 seconds
#
# Revision: 0
# Processed by: cddbd v1.5.2PL0 Copyright (c) Steve Scherf et al.
# Submitted via: CDex 1.50
#
DISCID=1a0d8314
DTITLE=B. B. King - Blues Boy   [CD2]
DYEAR=2006
DGENRE=Blues
TTITLE0=Three O'Clock Blues
TTITLE1=Fine Looking Woman
TTITLE2=Story From My Heart and Soul
TTITLE3=She Don't Move Me No More
TTITLE4=Shake It Up and Go
TTITLE5=My Own Fault Darlin'
TTITLE6=Gotta Find My Baby
TTITLE7=Someday, Somewhere
TTITLE8=You Know I Love You
TTITLE9=Boogie Woogie Woman
TTITLE10=Woke Up This Morning (My Baby's Gone)
TTITLE11=Blind Love
TTITLE12=You Don't Have To Cry (Past Day)
TTITLE13=Please Love Me
TTITLE14=Please Hurry Home
TTITLE15=When My Heart Beats Like A Hammer
TTITLE16=Whole Lotta Love
TTITLE17=Ten Long Years
TTITLE18=Lonely and Blue
TTITLE19=Sneakin' Round
EXTD=YEAR: 2006
EXTT0=
EXTT1=
EXTT2=
EXTT3=
EXTT4=
EXTT5=
EXTT6=
EXTT7=
EXTT8=
EXTT9=
EXTT10=
EXTT11=
EXTT12=
EXTT13=
EXTT14=
EXTT15=
EXTT16=
EXTT17=
EXTT18=
EXTT19=
PLAYORDER=
